<mxfile host="app.diagrams.net" agent="Mozilla/5.0 (Windows NT 10.0; Win64; x64) AppleWebKit/537.36 (KHTML, like Gecko) Chrome/129.0.0.0 Safari/537.36 Edg/129.0.0.0" version="24.7.17">
  <diagram name="第 1 页" id="toEgT_l3u1xbKIpgxxeh">
    <mxGraphModel dx="1042" dy="573" grid="1" gridSize="10" guides="1" tooltips="1" connect="1" arrows="1" fold="1" page="1" pageScale="1" pageWidth="827" pageHeight="1169" math="0" shadow="0">
      <root>
        <mxCell id="0" />
        <mxCell id="1" parent="0" />
        <mxCell id="6I9_8tS2t28-ZguC9UeZ-4" style="edgeStyle=orthogonalEdgeStyle;rounded=0;orthogonalLoop=1;jettySize=auto;html=1;exitX=0.5;exitY=1;exitDx=0;exitDy=0;strokeWidth=2;fontSize=13;" edge="1" parent="1" source="6I9_8tS2t28-ZguC9UeZ-1" target="6I9_8tS2t28-ZguC9UeZ-3">
          <mxGeometry relative="1" as="geometry" />
        </mxCell>
        <mxCell id="6I9_8tS2t28-ZguC9UeZ-1" value="增强后图像" style="rounded=1;whiteSpace=wrap;html=1;strokeWidth=2;fontSize=13;" vertex="1" parent="1">
          <mxGeometry x="330" y="270" width="120" height="60" as="geometry" />
        </mxCell>
        <mxCell id="6I9_8tS2t28-ZguC9UeZ-6" style="edgeStyle=orthogonalEdgeStyle;rounded=0;orthogonalLoop=1;jettySize=auto;html=1;exitX=0.5;exitY=1;exitDx=0;exitDy=0;strokeWidth=2;fontSize=13;" edge="1" parent="1" source="6I9_8tS2t28-ZguC9UeZ-3" target="6I9_8tS2t28-ZguC9UeZ-5">
          <mxGeometry relative="1" as="geometry" />
        </mxCell>
        <mxCell id="6I9_8tS2t28-ZguC9UeZ-3" value="检测图像所有连通域" style="rounded=1;whiteSpace=wrap;html=1;strokeWidth=2;fontSize=13;" vertex="1" parent="1">
          <mxGeometry x="330" y="360" width="120" height="60" as="geometry" />
        </mxCell>
        <mxCell id="6I9_8tS2t28-ZguC9UeZ-8" style="edgeStyle=orthogonalEdgeStyle;rounded=0;orthogonalLoop=1;jettySize=auto;html=1;exitX=0.5;exitY=1;exitDx=0;exitDy=0;entryX=0.5;entryY=0;entryDx=0;entryDy=0;strokeWidth=2;fontSize=13;" edge="1" parent="1" source="6I9_8tS2t28-ZguC9UeZ-5" target="6I9_8tS2t28-ZguC9UeZ-7">
          <mxGeometry relative="1" as="geometry" />
        </mxCell>
        <mxCell id="6I9_8tS2t28-ZguC9UeZ-5" value="计算圆形度、长宽比等参数" style="rounded=1;whiteSpace=wrap;html=1;strokeWidth=2;fontSize=13;" vertex="1" parent="1">
          <mxGeometry x="325" y="450" width="130" height="60" as="geometry" />
        </mxCell>
        <mxCell id="6I9_8tS2t28-ZguC9UeZ-12" style="edgeStyle=orthogonalEdgeStyle;rounded=0;orthogonalLoop=1;jettySize=auto;html=1;exitX=0.5;exitY=1;exitDx=0;exitDy=0;entryX=0.5;entryY=0;entryDx=0;entryDy=0;strokeWidth=2;fontSize=13;" edge="1" parent="1" source="6I9_8tS2t28-ZguC9UeZ-7" target="6I9_8tS2t28-ZguC9UeZ-9">
          <mxGeometry relative="1" as="geometry" />
        </mxCell>
        <mxCell id="6I9_8tS2t28-ZguC9UeZ-13" style="edgeStyle=orthogonalEdgeStyle;rounded=0;orthogonalLoop=1;jettySize=auto;html=1;exitX=0.5;exitY=1;exitDx=0;exitDy=0;entryX=0.5;entryY=0;entryDx=0;entryDy=0;strokeWidth=2;fontSize=13;" edge="1" parent="1" source="6I9_8tS2t28-ZguC9UeZ-7" target="6I9_8tS2t28-ZguC9UeZ-10">
          <mxGeometry relative="1" as="geometry" />
        </mxCell>
        <mxCell id="6I9_8tS2t28-ZguC9UeZ-7" value="是否符合计算要求" style="rhombus;whiteSpace=wrap;html=1;strokeWidth=2;fontSize=13;" vertex="1" parent="1">
          <mxGeometry x="315" y="550" width="150" height="90" as="geometry" />
        </mxCell>
        <mxCell id="6I9_8tS2t28-ZguC9UeZ-9" value="去除：填充为背景" style="rounded=1;whiteSpace=wrap;html=1;strokeWidth=2;fontSize=13;" vertex="1" parent="1">
          <mxGeometry x="230" y="680" width="120" height="50" as="geometry" />
        </mxCell>
        <mxCell id="6I9_8tS2t28-ZguC9UeZ-14" value="" style="edgeStyle=orthogonalEdgeStyle;rounded=0;orthogonalLoop=1;jettySize=auto;html=1;strokeWidth=2;fontSize=13;" edge="1" parent="1" source="6I9_8tS2t28-ZguC9UeZ-10" target="6I9_8tS2t28-ZguC9UeZ-11">
          <mxGeometry relative="1" as="geometry" />
        </mxCell>
        <mxCell id="6I9_8tS2t28-ZguC9UeZ-10" value="保留：填充为前景" style="rounded=1;whiteSpace=wrap;html=1;strokeWidth=2;fontSize=13;" vertex="1" parent="1">
          <mxGeometry x="414" y="680" width="130" height="50" as="geometry" />
        </mxCell>
        <mxCell id="6I9_8tS2t28-ZguC9UeZ-11" value="筛选后图像" style="rounded=1;whiteSpace=wrap;html=1;strokeWidth=2;fontSize=13;" vertex="1" parent="1">
          <mxGeometry x="414" y="760" width="130" height="50" as="geometry" />
        </mxCell>
        <mxCell id="6I9_8tS2t28-ZguC9UeZ-15" value="否" style="text;html=1;align=center;verticalAlign=middle;resizable=0;points=[];autosize=1;strokeColor=none;fillColor=none;" vertex="1" parent="1">
          <mxGeometry x="310" y="628" width="40" height="30" as="geometry" />
        </mxCell>
        <mxCell id="6I9_8tS2t28-ZguC9UeZ-16" value="是" style="text;html=1;align=center;verticalAlign=middle;resizable=0;points=[];autosize=1;strokeColor=none;fillColor=none;" vertex="1" parent="1">
          <mxGeometry x="410" y="628" width="40" height="30" as="geometry" />
        </mxCell>
      </root>
    </mxGraphModel>
  </diagram>
</mxfile>
